<?xml version="1.0" encoding="utf-8"?>
<!-- Generator: Adobe Illustrator 24.2.0, SVG Export Plug-In . SVG Version: 6.00 Build 0)  -->
<svg version="1.1" id="Capa_1" xmlns="http://www.w3.org/2000/svg" xmlns:xlink="http://www.w3.org/1999/xlink" x="0px" y="0px"
	 viewBox="0 0 297 297" style="enable-background:new 0 0 297 297;" xml:space="preserve">
<style type="text/css">
	.st0{fill:#424242;}
	.st1{fill:#57BB57;}
	.st2{fill:#7CD87C;}
</style>
<g id="Capa_1_1_">
	<g>
		<path d="M223.3,247h-5.9c2.6-3.8,10.8-18-0.7-32.2c-13.3-16.5-39.9-65.7-27.3-98.8h1c4.4,0,7.7-3.6,7.7-8v-1c0-4.4-3.2-8-7.7-8
			h-1.2c10.9-10.5,17.7-25.2,17.7-41.5c0-31.8-25.7-57.5-57.5-57.5S91.8,25.7,91.8,57.5c0,16.3,6.8,31,17.7,41.5h-2.2
			c-4.4,0-8.3,3.6-8.3,8v1c0,4.4,3.9,8,8.3,8h2c12.5,33-14,82.3-27.3,98.8c-11.5,14.2-3.3,28.4-0.7,32.2h-6.9c-4.4,0-8.3,3.6-8.3,8
			v18c0,4.4,3.9,8,8.3,8H75v16h148v-16c5,0,8-3.6,8-8v-18C231,250.6,227.8,247,223.3,247z"/>
		<path d="M208.2,212.9c1.4,2,2.8,3.8,4,5.4c8.8,10.8,3.2,21.4,0.5,25.5l-6.1,8.9h16.7c1.4,0,2,1.2,2,2.3v18c0,2.3-1.7,2.3-2.3,2.3
			h-5.7v16H80.7v-16h-6.3c-1.4,0-2.7-1.1-2.7-2.3v-18c0-1.2,1.3-2.3,2.7-2.3H92l-6.1-8.9c-2.8-4.1-8.3-14.7,0.5-25.5
			c11.5-14.2,31.2-49.6,31.8-81.3"/>
		<path d="M118.2,137c0.2-8-0.9-15.9-3.6-23l-1.4-3.7h-5.9c-1.4,0-2.7-1.1-2.7-2.3v-1c0-1.2,1.3-2.3,2.7-2.3h16.3l-10.2-9.8
			c-10.3-9.9-16-23.2-16-37.4c0-28.6,23.3-51.8,51.8-51.8C177.8,5.7,201,29,201,57.5c0,14.2-5.7,27.5-16,37.4l-10.2,9.8h15.3
			c1.4,0,2,1.2,2,2.3v1c0,1.1-0.6,2.3-2,2.3h-4.9l-1.4,3.7c-12.3,32.3,9.3,77.7,24.2,98.9"/>
	</g>
	<g>
		<path class="st0" d="M223.3,247h-5.9c2.6-3.8,10.8-18-0.7-32.2c-13.3-16.5-39.9-65.7-27.3-98.8h1c4.4,0,7.7-3.6,7.7-8v-1
			c0-4.4-3.2-8-7.7-8h-1.2c10.9-10.5,17.7-25.2,17.7-41.5c0-31.8-25.7-57.5-57.5-57.5S91.8,25.7,91.8,57.5c0,16.3,6.8,31,17.7,41.5
			h-2.2c-4.4,0-8.3,3.6-8.3,8v1c0,4.4,3.9,8,8.3,8h2c12.5,33-14,82.3-27.3,98.8c-11.5,14.2-3.3,28.4-0.7,32.2h-6.9
			c-4.4,0-8.3,3.6-8.3,8v18c0,4.4,3.9,8,8.3,8H75v16h148v-16c5,0,8-3.6,8-8v-18C231,250.6,227.8,247,223.3,247z"/>
		<path class="st1" d="M208.2,212.9c1.4,2,2.8,3.8,4,5.4c8.8,10.8,3.2,21.4,0.5,25.5l-6.1,8.9h16.7c1.4,0,2,1.2,2,2.3v18
			c0,2.3-1.7,2.3-2.3,2.3h-5.7v16H80.7v-16h-6.3c-1.4,0-2.7-1.1-2.7-2.3v-18c0-1.2,1.3-2.3,2.7-2.3H92l-6.1-8.9
			c-2.8-4.1-8.3-14.7,0.5-25.5c11.5-14.2,31.2-49.6,31.8-81.3"/>
		<path class="st2" d="M118.2,137c0.2-8-0.9-15.9-3.6-23l-1.4-3.7h-5.9c-1.4,0-2.7-1.1-2.7-2.3v-1c0-1.2,1.3-2.3,2.7-2.3h16.3
			l-10.2-9.8c-10.3-9.9-16-23.2-16-37.4c0-28.6,23.3-51.8,51.8-51.8C177.8,5.7,201,29,201,57.5c0,14.2-5.7,27.5-16,37.4l-10.2,9.8
			h15.3c1.4,0,2,1.2,2,2.3v1c0,1.1-0.6,2.3-2,2.3h-4.9l-1.4,3.7c-12.3,32.3,9.3,77.7,24.2,98.9"/>
	</g>
</g>
</svg>
